#!OML:ASF H:\IndianDance\Patient Classification 1\Patient 1\Session 1\dancer.ASF
:FULLY-SPECIFIED
:DEGREES
4208
root 3.82441 15.5378 -9.75626 -179.348 7.62776 184.458
lowerback 7.20491 -0.290482 -0.696288
upperback -6.51101 0.00742082 2.13722
thorax -11.0422 0.277239 2.67268
lowerneck -10.0321 -14.2893 -8.81241
upperneck 9.72594 -19.1207 9.41048
head 6.32905 -8.94873 2.47219
rclavicle 8.01351e-015 -2.93207e-015
rhumerus -43.0336 -50.6847 -17.426
rradius 95.3743
rwrist -69.3544
rhand -37.0015 8.03309
rfingers 7.12502
rthumb -10.0761 -21.7057
lclavicle 8.01351e-015 -2.93207e-015
lhumerus -40.9489 38.869 1.60264
lradius 60.1785
lwrist 43.2292
lhand -47.1161 21.5403
lfingers 7.12502
lthumb -19.8189 50.5499
rfemur -27.0084 -7.78599 20.8618
rtibia 72.8518
rfoot 5.24186 12.7064
rtoes 5.49336
lfemur -25.2862 8.02599 -19.2189
ltibia 41.2853
lfoot -8.36522 9.41773
ltoes 11.6486
4209
root 3.86152 15.6088 -9.6562 -178.719 7.28062 184.561
lowerback 6.48218 -0.361843 -0.647348
upperback -6.66128 -0.0561154 2.12967
thorax -10.7698 0.252329 2.63844
lowerneck -10.7178 -14.0223 -8.62733
upperneck 10.3888 -18.7575 9.15404
head 6.57782 -8.74259 2.35404
rclavicle 1.44492e-014 -2.5196e-014
rhumerus -41.8824 -51.5273 -17.8315
rradius 92.1179
rwrist -72.466
rhand -35.19 5.7143
rfingers 7.12502
rthumb -8.32813 -24.1015
lclavicle 1.44492e-014 -2.5196e-014
lhumerus -38.992 39.3017 2.46128
lradius 57.3683
lwrist 43.4836
lhand -44.9763 22.3469
lfingers 7.12502
lthumb -17.7608 51.5558
rfemur -26.0165 -6.62867 21.3525
rtibia 68.6035
rfoot 6.31887 12.4897
rtoes 6.30864
lfemur -25.4076 6.64233 -18.8144
ltibia 39.7523
lfoot -7.9699 9.34456
ltoes 11.4928
4210
root 3.89925 15.6654 -9.55329 -178.008 6.89874 184.688
lowerback 5.69901 -0.443241 -0.553311
upperback -6.81585 -0.127722 2.10496
thorax -10.4658 0.220227 2.55985
lowerneck -11.3939 -13.7521 -8.47369
upperneck 11.008 -18.3931 8.97624
head 6.82512 -8.53299 2.26729
rclavicle -6.64686e-015 7.95139e-016
rhumerus -40.6535 -52.3157 -18.2958
rradius 88.8578
rwrist -75.4609
rhand -33.2645 3.48604
rfingers 7.12502
rthumb -6.46957 -26.3951
lclavicle -6.64686e-015 7.95139e-016
lhumerus -36.911 39.7669 3.36426
lradius 54.758
lwrist 44.064
lhand -42.7399 23.375
lfingers 7.12502
lthumb -15.6079 52.7653
rfemur -25.2498 -5.49121 21.8489
rtibia 64.7761
rfoot 6.77238 12.0536
rtoes 6.66367
lfemur -25.736 5.2478 -18.3528
ltibia 38.5013
lfoot -7.97414 8.91912
ltoes 10.4778
4211
root 3.93673 15.7087 -9.44753 -177.228 6.48729 184.836
lowerback 4.86467 -0.529523 -0.410792
upperback -6.97185 -0.200872 2.06653
thorax -10.1339 0.184238 2.43785
lowerneck -12.0187 -13.478 -8.35746
upperneck 11.5398 -18.0253 8.87545
head 7.04925 -8.32199 2.21698
rclavicle -2.00524e-014 9.34288e-015
rhumerus -39.3226 -53.0087 -18.8372
rradius 85.6254
rwrist -78.3227
rhand -31.4717 1.50258
rfingers 7.12502
rthumb -4.73862 -28.4244
lclavicle -2.00524e-014 9.34288e-015
lhumerus -34.704 40.2694 4.32767
lradius 52.3149
lwrist 44.8915
lhand -40.3292 24.5165
lfingers 7.12502
lthumb -13.2851 54.0731
rfemur -24.7252 -4.42978 22.3498
rtibia 61.4842
rfoot 6.60509 11.5356
rtoes 6.80324
lfemur -26.2606 3.89072 -17.8509
ltibia 37.561
lfoot -8.40473 8.04718
ltoes 8.48907
4212
root 3.97321 15.7417 -9.33863 -176.398 6.04931 184.998
lowerback 3.99613 -0.614805 -0.217517
upperback -7.12562 -0.269436 2.01197
thorax -9.78114 0.147167 2.26824
lowerneck -12.5439 -13.2008 -8.26796
upperneck 11.938 -17.6538 8.83585
head 7.22343 -8.1135 2.2013
rclavicle -1.38652e-014 1.98785e-016
rhumerus -37.8857 -53.5713 -19.466
rradius 82.4411
rwrist -80.9575
rhand -29.9465 -0.262215
rfingers 7.12502
rthumb -3.2658 -30.2169
lclavicle -1.38652e-014 1.98785e-016
lhumerus -32.3687 40.8229 5.3736
lradius 50.0136
lwrist 45.8556
lhand -37.6965 25.6454
lfingers 7.12502
lthumb -10.7465 55.3505
rfemur -24.4469 -3.51195 22.8551
rtibia 58.7776
rfoot 5.82892 10.9906
rtoes 6.4443
lfemur -26.9472 2.60539 -17.3351
ltibia 36.94
lfoot -9.24902 6.72845
ltoes 5.60503
4213
root 4.00789 15.768 -9.22615 -175.548 5.59202 185.155
lowerback 3.13069 -0.698236 0.0012297
upperback -7.27332 -0.33611 1.94693
thorax -9.42611 0.109771 2.07244
lowerneck -12.9324 -12.9131 -8.18599
upperneck 12.1689 -17.2667 8.82464
head 7.32327 -7.90656 2.21178
rclavicle 5.54112e-015 -3.57812e-015
rhumerus -36.3195 -53.9677 -20.2123
rradius 79.3099
rwrist -83.2718
rhand -28.7656 -1.72091
rfingers 7.12502
rthumb -2.12531 -31.6901
lclavicle 5.54112e-015 -3.57812e-015
lhumerus -29.9424 41.4192 6.50512
lradius 47.8461
lwrist 46.8679
lhand -34.8356 26.7635
lfingers 7.12502
lthumb -7.98614 56.5927
rfemur -24.3903 -2.79598 23.3511
rtibia 56.6282
rfoot 4.61931 10.4442
rtoes 5.76578
lfemur -27.7375 1.42227 -16.8502
ltibia 36.6383
lfoot -10.4448 5.05727
ltoes 2.11806
4214
root 4.0404 15.7895 -9.10951 -174.724 5.12851 185.284
lowerback 2.33156 -0.772559 0.220701
upperback -7.41604 -0.394867 1.86617
thorax -9.10791 0.0761887 1.85928
lowerneck -13.1539 -12.6129 -8.08822
upperneck 12.2167 -16.8606 8.80927
head 7.33223 -7.70291 2.23661
rclavicle -2.26615e-014 -1.98785e-015
rhumerus -34.6341 -54.1568 -21.0678
rradius 76.229
rwrist -85.109
rhand -27.9437 -2.91336
rfingers 7.12502
rthumb -1.33155 -32.889
lclavicle -2.26615e-014 -1.98785e-015
lhumerus -27.4204 41.9608 7.75653
lradius 45.8226
lwrist 47.9501
lhand -31.9054 27.7896
lfingers 7.12502
lthumb -5.15737 57.7068
rfemur -24.5076 -2.30563 23.8202
rtibia 54.9482
rfoot 3.13013 9.89765
rtoes 4.77551
lfemur -28.5574 0.376379 -16.4494
ltibia 36.6537
lfoot -11.8495 3.18745
ltoes -1.43475
4215
root 4.06984 15.8076 -8.98801 -173.966 4.67933 185.345
lowerback 1.65148 -0.828671 0.408606
upperback -7.54857 -0.437743 1.76198
thorax -8.85151 0.0510924 1.63901
lowerneck -13.2124 -12.3079 -7.97252
upperneck 12.101 -16.4454 8.77198
head 7.25641 -7.50764 2.26633
rclavicle 8.79622e-015 -8.34896e-015
rhumerus -32.8791 -54.1198 -22.0081
rradius 73.2246
rwrist -86.3468
rhand -27.4182 -3.86591
rfingers 7.12502
rthumb -0.823961 -33.8441
lclavicle 8.79622e-015 -8.34896e-015
lhumerus -24.8352 42.4889 9.15585
lradius 43.9685
lwrist 49.0342
lhand -29.0559 28.6762
lfingers 7.12502
lthumb -2.40573 58.6424
rfemur -24.7421 -2.02654 24.2135
rtibia 53.6126
rfoot 1.54547 9.33955
rtoes 3.83688
lfemur -29.3359 -0.514981 -16.2005
ltibia 36.986
lfoot -13.2582 1.31869
ltoes -4.54189
4216
root 4.09664 15.8222 -8.86159 -173.329 4.26232 185.323
lowerback 1.14792 -0.861453 0.531059
upperback -7.65829 -0.461756 1.6354
thorax -8.67572 0.0364689 1.43254
lowerneck -13.1259 -12.0021 -7.83666
upperneck 11.8467 -16.0269 8.70653
head 7.10729 -7.32172 2.29503
rclavicle 1.43125e-014 -1.07344e-014
rhumerus -31.1031 -53.868 -23.004
rradius 70.3155
rwrist -86.9404
rhand -27.0677 -4.65944
rfingers 7.12502
rthumb -0.485438 -34.6386
lclavicle 1.43125e-014 -1.07344e-014
lhumerus -22.2053 42.9435 10.7211
lradius 42.3047
lwrist 50.1438
lhand -26.416 29.5272
lfingers 7.12502
lthumb 0.143955 59.5069
rfemur -25.0051 -1.93266 24.5081
rtibia 52.4998
rfoot -0.0356086 8.73134
rtoes 2.65628
lfemur -29.985 -1.23358 -16.142
ltibia 37.6314
lfoot -14.4968 -0.3588
ltoes -7.10662
4217
root 4.12061 15.8326 -8.73027 -172.846 3.90421 185.22
lowerback 0.855327 -0.865364 0.57873
upperback -7.73657 -0.460472 1.49232
thorax -8.59025 0.0349183 1.25131
lowerneck -12.9409 -11.6962 -7.66468
upperneck 11.51 -15.607 8.58664
head 6.90834 -7.14365 2.30739
rclavicle -1.53561e-014 -1.15295e-014
rhumerus -29.3304 -53.4275 -24.033
rradius 67.5136
rwrist -86.9348
rhand -26.7484 -5.38419
rfingers 7.12502
rthumb -0.177132 -35.3639
lclavicle -1.53561e-014 -1.15295e-014
lhumerus -19.5763 43.3122 12.4508
lradius 40.8511
lwrist 51.2446
lhand -24.0652 30.2769
lfingers 7.12502
lthumb 2.4144 60.243
rfemur -25.2516 -1.96033 24.6896
rtibia 51.5053
rfoot -1.38346 8.13158
rtoes 2.37138
lfemur -30.445 -1.765 -16.2843
ltibia 38.5768
lfoot -15.4102 -1.70059
ltoes -9.0742
4218
root 4.14208 15.8387 -8.59438 -172.541 3.6236 185.041
lowerback 0.790307 -0.837022 0.546024
upperback -7.77337 -0.430927 1.33881
thorax -8.59305 0.0473141 1.10464
lowerneck -12.7128 -11.4013 -7.47955
upperneck 11.1564 -15.2008 8.42522
head 6.69518 -6.97604 2.30388
rclavicle -8.34896e-015 1.27222e-014
rhumerus -27.5929 -52.822 -25.0853
rradius 64.8609
rwrist -86.4667
rhand -26.4123 -6.08933
rfingers 7.12502
rthumb 0.147566 -36.069
lclavicle -8.34896e-015 1.27222e-014
lhumerus -16.9814 43.5659 14.3312
lradius 39.6078
lwrist 52.2766
lhand -22.0605 30.9248
lfingers 7.12502
lthumb 4.35034 60.8602
rfemur -25.4261 -2.06161 24.7493
rtibia 50.5848
rfoot -2.64619 7.56082
rtoes 1.66506
lfemur -30.6622 -2.10175 -16.6175
ltibia 39.7853
lfoot -15.9504 -2.65463
ltoes -10.6811
4219
root 4.1615 15.8403 -8.45454 -172.424 3.4302 184.813
lowerback 0.946734 -0.777253 0.442375
upperback -7.75993 -0.374426 1.1884
thorax -8.6708 0.0723848 1.00105
lowerneck -12.4964 -11.1179 -7.33226
upperneck 10.8465 -14.8087 8.273
head 6.5049 -6.8131 2.30329
rclavicle -4.77083e-015 1.19271e-015
rhumerus -25.8943 -52.1136 -26.1649
rradius 62.4007
rwrist -85.7331
rhand -26.0221 -6.80095
rfingers 7.12502
rthumb 0.524397 -36.7801
lclavicle -4.77083e-015 1.19271e-015
lhumerus -14.452 43.6414 16.3193
lradius 38.5456
lwrist 53.1682
lhand -20.3177 31.5044
lfingers 7.12502
lthumb 6.03307 61.3985
rfemur -25.4863 -2.19645 24.702
rtibia 49.7208
rfoot -3.68428 7.19483
rtoes 0.776801
lfemur -30.6093 -2.26018 -17.0934
ltibia 41.2131
lfoot -16.1461 -3.31678
ltoes -12.0509
4220
root 4.17943 15.8392 -8.31178 -172.488 3.32842 184.571
lowerback 1.30065 -0.688355 0.290388
upperback -7.69226 -0.292887 1.05295
thorax -8.80556 0.108297 0.939557
lowerneck -12.3389 -10.8473 -7.21582
upperneck 10.6293 -14.4337 8.12365
head 6.35956 -6.65396 2.29923
rclavicle -2.17669e-014 6.75868e-015
rhumerus -24.2241 -51.3443 -27.2793
rradius 60.1536
rwrist -84.9598
rhand -25.533 -7.47992
rfingers 7.12502
rthumb 0.996834 -37.4573
lclavicle -2.17669e-014 6.75868e-015
lhumerus -12.0145 43.6278 18.3799
lradius 37.6325
lwrist 53.7227
lhand -18.7226 31.9575
lfingers 7.12502
lthumb 7.57289 61.802
rfemur -25.4253 -2.33195 24.5857
rtibia 48.9216
rfoot -4.56285 6.95377
rtoes -0.262111
lfemur -30.2792 -2.25124 -17.649
ltibia 42.8026
lfoot -16.051 -3.81624
ltoes -13.3291
4221
root 4.19636 15.8356 -8.1672 -172.705 3.30868 184.355
lowerback 1.81011 -0.576271 0.127972
upperback -7.57382 -0.19006 0.945245
thorax -8.97731 0.152119 0.911532
lowerneck -12.2691 -10.5874 -7.14119
upperneck 10.5308 -14.0721 7.98903
head 6.27306 -6.49528 2.29594
rclavicle -9.14409e-015 1.31198e-014
rhumerus -22.5552 -50.5555 -28.437
rradius 58.1278
rwrist -84.2976
rhand -24.9856 -8.12153
rfingers 7.12502
rthumb 1.52543 -38.0958
lclavicle -9.14409e-015 1.31198e-014
lhumerus -9.69795 43.3842 20.4287
lradius 36.8393
lwrist 54.003
lhand -17.1749 32.3473
lfingers 7.12502
lthumb 9.06653 62.1325
rfemur -25.2589 -2.45241 24.4548
rtibia 48.1824
rfoot -5.29817 6.86398
rtoes -1.2231
lfemur -29.7028 -2.0953 -18.2081
ltibia 44.5003
lfoot -15.6996 -4.28862
ltoes -14.246
